<?xml version="1.0" encoding="utf-8"?>
<!DOCTYPE svg PUBLIC "-//W3C//DTD SVG 1.1//EN" "http://www.w3.org/Graphics/SVG/1.1/DTD/svg11.dtd">
<svg xmlns="http://www.w3.org/2000/svg" xmlns:xlink="http://www.w3.org/1999/xlink" version="1.1" baseProfile="full" width="533.44" height="533.44" viewBox="0 0 533.44 533.44" enable-background="new 0 0 533.44 533.44" xml:space="preserve">
	<path fill="#FFFFFF" fill-opacity="1" fill-rule="evenodd" stroke-width="0.2" stroke-linejoin="round" d="M -2.54313e-006,266.296L 3.05176e-005,266.558C 0.0915371,361.917 50.1461,445.578 125.397,492.775L 163.473,426.984L 68.7526,264.424L 0.0100032,263.959L -2.54313e-006,266.296 Z M 125.397,492.775L 125.347,492.86C 128.604,494.901 131.907,496.874 135.256,498.776L 135.303,498.694C 131.955,496.79 128.652,494.817 125.397,492.775 Z M 135.303,498.694C 170.488,518.697 210.659,530.941 253.49,533.097L 253.49,432.202L 173.833,431.664L 135.303,498.694 Z M 253.49,96.0649L 174.28,95.5297L 80.8405,258.09L 174.92,421.29L 253.49,421.555L 253.49,96.0649 Z M 163.993,89.1039L 132.879,35.7057C 57.5105,79.5489 5.57091,159.243 0.419225,251.429L 69.9126,251.664L 163.993,89.1039 Z M 253.49,85.4476L 253.49,0.00579834C 213.962,1.95929 176.696,12.5126 143.525,29.8336L 175.433,85.1839L 253.49,85.4476 Z "/>
	<path fill="#FFFFFF" fill-opacity="1" fill-rule="evenodd" stroke-width="0.2" stroke-linejoin="round" d="M 267.672,0.00012207L 532.721,0.00012207C 532.721,0.00012207 560.792,464.795 266.392,533.44C 267.889,533.44 266.891,0.00012207 267.672,0.00012207 Z M 267.111,323.683L 267.111,450.56C 267.111,450.56 386.227,450.56 451.902,315.348C 425.503,332.944 266.467,323.683 267.111,323.683 Z M 471.314,126.978C 471.143,127.652 420.186,54.6976 352.633,103.73C 285.08,152.763 402.043,89.2867 471.314,126.978 Z "/>
</svg>
