<?xml version="1.0" encoding="utf-8"?>
<!DOCTYPE svg PUBLIC "-//W3C//DTD SVG 1.1//EN" "http://www.w3.org/Graphics/SVG/1.1/DTD/svg11.dtd">
<svg xmlns="http://www.w3.org/2000/svg" xmlns:xlink="http://www.w3.org/1999/xlink" version="1.1" baseProfile="full" width="533.44" height="533.44" viewBox="0 0 533.44 533.44" enable-background="new 0 0 533.44 533.44" xml:space="preserve">
	<path fill="#FFFFFF" fill-opacity="1" stroke-width="0.32" stroke-linejoin="round" d="M 266.72,137.329C 414.025,137.329 533.44,188.481 533.44,251.58C 533.44,314.68 414.025,365.832 266.72,365.832C 119.415,365.832 1.01725e-005,314.68 1.01725e-005,251.58C 1.01725e-005,201.428 75.4381,158.823 180.359,143.451C 187.279,141.722 194.903,140.767 203.232,140.585C 223.58,138.457 244.842,137.329 266.72,137.329 Z M 269.07,163.36C 238.736,161.443 210.124,163.556 184.549,168.647C 180.707,171.112 177.516,173.941 175.002,176.373C 169.138,182.048 166.25,188.431 166.339,195.521C 166.273,204.243 169.47,211.431 175.929,217.083C 182.389,222.736 192.502,228.336 206.27,233.885C 223.434,241.194 236.165,249.83 244.463,259.795C 252.76,269.76 256.887,281.916 256.843,296.262C 256.776,314.296 250.406,329.02 237.735,340.436L 236.291,341.691C 246.956,342.485 257.906,342.898 269.07,342.898C 290.128,342.898 310.423,341.429 329.477,338.706L 277.061,163.431C 274.411,163.384 271.747,163.36 269.07,163.36 Z M 468.497,253.129C 468.497,230.886 450.526,210.533 420.763,194.851L 378.444,328.205C 432.685,312.161 468.497,284.528 468.497,253.129 Z M 69.6434,253.129C 69.6434,282.763 101.544,309.044 150.73,325.392C 153.28,326.036 155.879,326.677 158.417,327.416C 166.409,329.745 174.944,330.953 184.023,331.039C 197.066,330.895 207.061,327.94 214.009,322.172C 220.956,316.405 224.463,308.688 224.528,299.022C 224.605,290.184 221.669,282.675 215.72,276.493C 209.771,270.312 200.346,264.665 187.445,259.554C 171.204,253.275 158.339,245.201 148.849,235.334C 139.359,225.467 134.508,213.392 134.297,199.109C 134.367,193.401 135.111,188.042 136.529,183.034C 95.3481,200.26 69.6434,226.351 69.6434,253.129 Z M 374.176,243.781L 392.23,182.519C 369.044,174.314 341.718,168.372 311.895,165.435L 333.39,243.502C 341.192,270.583 347.761,296.966 353.099,322.649L 353.92,322.649C 359.167,296.779 365.919,270.49 374.176,243.781 Z "/>
</svg>
