<?xml version="1.0" encoding="utf-8"?>
<!DOCTYPE svg PUBLIC "-//W3C//DTD SVG 1.1//EN" "http://www.w3.org/Graphics/SVG/1.1/DTD/svg11.dtd">
<svg xmlns="http://www.w3.org/2000/svg" xmlns:xlink="http://www.w3.org/1999/xlink" version="1.1" baseProfile="full" width="533.44" height="533.44" viewBox="0 0 533.44 533.44" enable-background="new 0 0 533.44 533.44" xml:space="preserve">
	<g>
		<path fill="#FFFFFF" fill-opacity="1" stroke-width="0.2" stroke-linejoin="round" d="M 77.0915,113.939L 70.6696,135.621C 68.8758,141.373 67.4091,147.034 66.2694,152.605L 66.0911,152.605C 64.9316,147.074 63.5045,141.393 61.8098,135.561L 55.8042,113.939L 48.2526,113.939L 62.0477,159.668L 69.7182,159.668L 84.4642,113.939L 77.0915,113.939 Z "/>
		<path fill="#FFFFFF" fill-opacity="1" stroke-width="0.2" stroke-linejoin="round" d="M 110.547,153.435C 109.514,153.891 108.327,154.26 106.986,154.545C 105.645,154.829 104.043,154.975 102.179,154.984C 99.4137,155.021 97.0491,154.247 95.0854,152.661C 93.1218,151.075 92.0525,148.453 91.8778,144.797L 113.117,144.797C 113.234,144.016 113.293,143.095 113.292,142.032C 113.337,137.829 112.342,134.214 110.306,131.186C 108.271,128.159 104.924,126.574 100.267,126.431C 95.4775,126.546 91.8165,128.217 89.2838,131.444C 86.7511,134.67 85.4742,138.764 85.453,143.725C 85.4705,148.766 86.8121,152.766 89.4778,155.725C 92.1435,158.683 96.0277,160.196 101.131,160.263C 103.451,160.248 105.499,160.056 107.275,159.685C 109.05,159.314 110.511,158.855 111.657,158.306L 110.547,153.435 Z M 91.9394,140.113C 92.1001,138.035 92.7966,136.05 94.029,134.155C 95.2615,132.26 97.1763,131.247 99.7735,131.116C 102.475,131.24 104.351,132.238 105.401,134.109C 106.452,135.981 106.941,137.982 106.868,140.113L 91.9394,140.113 Z "/>
		<path fill="#FFFFFF" fill-opacity="1" stroke-width="0.2" stroke-linejoin="round" d="M 135.923,126.431C 135.378,126.46 134.803,126.46 134.198,126.431C 132.375,126.45 130.697,127.038 129.163,128.194C 127.63,129.35 126.471,130.957 125.686,133.017L 125.447,133.017L 125.207,127.026L 119.155,127.026C 119.324,129.958 119.403,133.275 119.393,136.978L 119.393,159.668L 126.346,159.668L 126.346,142.369C 126.37,139.49 127.05,137.201 128.383,135.505C 129.717,133.808 131.556,132.94 133.901,132.9C 134.664,132.9 135.338,132.958 135.923,133.076L 135.923,126.431 Z "/>
		<path fill="#FFFFFF" fill-opacity="1" stroke-width="0.2" stroke-linejoin="round" d="M 142.592,127.078L 137.952,127.078L 137.952,132.253L 142.592,132.253L 142.592,149.301C 142.59,151.441 142.791,153.209 143.197,154.605C 143.603,156.002 144.227,157.11 145.071,157.929C 146.609,159.458 148.794,160.236 151.627,160.263C 153.977,160.245 155.761,160.004 156.981,159.541L 156.743,154.565C 155.999,154.824 154.988,154.964 153.709,154.984C 150.863,155.004 149.475,152.99 149.545,148.943L 149.545,132.253L 157.338,132.253L 157.338,127.078L 149.545,127.078L 149.545,118.987L 142.592,121.129L 142.592,127.078 Z "/>
		<path fill="#FFFFFF" fill-opacity="1" stroke-width="0.2" stroke-linejoin="round" d="M 179.942,126.431C 179.397,126.46 178.822,126.46 178.217,126.431C 176.394,126.45 174.716,127.038 173.182,128.194C 171.649,129.35 170.49,130.957 169.705,133.017L 169.466,133.017L 169.226,127.026L 163.174,127.026C 163.343,129.958 163.422,133.275 163.412,136.978L 163.412,159.668L 170.365,159.668L 170.365,142.369C 170.389,139.49 171.069,137.201 172.402,135.505C 173.736,133.808 175.575,132.94 177.92,132.9C 178.683,132.9 179.357,132.958 179.942,133.076L 179.942,126.431 Z "/>
		<path fill="#FFFFFF" fill-opacity="1" stroke-width="0.2" stroke-linejoin="round" d="M 208.698,153.435C 207.665,153.891 206.477,154.26 205.137,154.545C 203.796,154.829 202.193,154.975 200.33,154.984C 197.564,155.021 195.2,154.247 193.236,152.661C 191.272,151.075 190.203,148.453 190.028,144.797L 211.268,144.797C 211.385,144.016 211.443,143.095 211.443,142.032C 211.488,137.829 210.493,134.214 208.457,131.186C 206.421,128.159 203.075,126.574 198.418,126.431C 193.628,126.546 189.967,128.217 187.434,131.444C 184.902,134.67 183.625,138.764 183.604,143.725C 183.621,148.766 184.963,152.766 187.628,155.725C 190.294,158.683 194.178,160.196 199.281,160.263C 201.602,160.248 203.65,160.056 205.425,159.685C 207.201,159.314 208.662,158.855 209.808,158.306L 208.698,153.435 Z M 190.09,140.113C 190.251,138.035 190.947,136.05 192.18,134.155C 193.412,132.26 195.327,131.247 197.924,131.116C 200.625,131.24 202.501,132.238 203.552,134.109C 204.603,135.981 205.091,137.982 205.018,140.113L 190.09,140.113 Z "/>
		<path fill="#FFFFFF" fill-opacity="1" stroke-width="0.2" stroke-linejoin="round" d="M 218.734,127.078L 214.093,127.078L 214.093,132.253L 218.734,132.253L 218.734,149.301C 218.731,151.441 218.933,153.209 219.338,154.605C 219.744,156.002 220.369,157.11 221.212,157.929C 222.75,159.458 224.935,160.236 227.768,160.263C 230.118,160.245 231.903,160.004 233.122,159.541L 232.884,154.565C 232.141,154.824 231.129,154.964 229.85,154.984C 227.005,155.004 225.617,152.99 225.686,148.943L 225.686,132.253L 233.479,132.253L 233.479,127.078L 225.686,127.078L 225.686,118.987L 218.734,121.129L 218.734,127.078 Z "/>
		<path fill="#FFFFFF" fill-opacity="1" stroke-width="0.2" stroke-linejoin="round" d="M 266.136,127.026L 259.184,127.026L 259.184,147.09C 259.098,149.533 258.368,151.37 256.995,152.599C 255.623,153.828 254.123,154.444 252.496,154.445C 250.313,154.407 248.762,153.556 247.843,151.893C 246.925,150.23 246.479,147.982 246.506,145.149L 246.506,127.026L 239.553,127.026L 239.553,146.284C 239.644,151.407 240.706,155.025 242.739,157.139C 244.771,159.253 247.229,160.276 250.111,160.208C 252.694,160.122 254.784,159.497 256.38,158.332C 257.976,157.166 259.11,155.971 259.783,154.745L 259.963,154.745L 260.322,159.668L 266.433,159.668C 266.275,157.086 266.176,153.972 266.136,150.325L 266.136,127.026 Z "/>
		<path fill="#FFFFFF" fill-opacity="1" stroke-width="0.2" stroke-linejoin="round" d="M 302.422,139.884C 302.289,134.935 301.116,131.448 298.904,129.422C 296.692,127.396 294.238,126.418 291.541,126.487C 289.062,126.546 286.982,127.133 285.299,128.25C 283.616,129.367 282.382,130.66 281.598,132.129L 281.418,132.129L 281.058,127.026L 275.007,127.026C 275.069,128.4 275.123,129.827 275.17,131.306C 275.217,132.784 275.242,134.418 275.245,136.208L 275.245,159.668L 282.197,159.668L 282.197,139.999C 282.278,137.494 283.024,135.579 284.436,134.254C 285.849,132.929 287.443,132.261 289.22,132.249C 291.537,132.316 293.167,133.153 294.108,134.76C 295.049,136.368 295.503,138.35 295.47,140.706L 295.47,159.668L 302.422,159.668L 302.422,139.884 Z "/>
		<path fill="#FFFFFF" fill-opacity="1" stroke-width="0.2" stroke-linejoin="round" d="M 332.24,127.026L 331.94,131.366L 331.82,131.366C 331.153,130.056 330.102,128.918 328.666,127.952C 327.23,126.986 325.312,126.479 322.913,126.431C 319.243,126.448 316.06,127.913 313.363,130.828C 310.665,133.742 309.25,138.005 309.118,143.617C 309.178,148.318 310.38,152.145 312.724,155.099C 315.068,158.052 318.189,159.576 322.088,159.668C 324.19,159.643 326.01,159.19 327.545,158.312C 329.081,157.433 330.266,156.284 331.102,154.864L 331.221,154.864L 331.221,158.008C 331.174,161.579 330.325,164.157 328.672,165.741C 327.02,167.325 324.845,168.102 322.147,168.071C 320.308,168.049 318.637,167.821 317.133,167.385C 315.629,166.949 314.365,166.435 313.341,165.842L 311.795,171.029C 313.107,171.786 314.671,172.361 316.486,172.755C 318.302,173.149 320.169,173.348 322.088,173.35C 329.531,172.998 334.137,170.782 335.908,166.703C 337.678,162.625 338.413,158.797 338.113,155.22L 338.113,136.436C 338.114,134.289 338.142,132.468 338.195,130.974C 338.248,129.48 338.32,128.164 338.411,127.026L 332.24,127.026 Z M 331.161,146.162C 331.087,148.904 330.351,150.961 328.952,152.332C 327.552,153.704 325.932,154.389 324.091,154.389C 321.543,154.332 319.584,153.299 318.214,151.289C 316.844,149.28 316.152,146.637 316.137,143.36C 316.177,139.767 316.923,136.937 318.376,134.871C 319.829,132.806 321.754,131.752 324.15,131.71C 326.272,131.769 327.964,132.549 329.224,134.051C 330.485,135.553 331.13,137.425 331.161,139.668L 331.161,146.162 Z "/>
		<path fill="#FFFFFF" fill-opacity="1" stroke-width="0.2" stroke-linejoin="round" d="M 364.363,128.432C 363.493,127.899 362.407,127.446 361.104,127.072C 359.801,126.698 358.335,126.503 356.707,126.487C 353.19,126.56 350.436,127.523 348.444,129.376C 346.453,131.229 345.439,133.532 345.404,136.285C 345.387,138.146 346.042,139.851 347.369,141.401C 348.695,142.951 350.792,144.295 353.658,145.432C 355.645,146.213 357.052,147.009 357.881,147.82C 358.709,148.63 359.111,149.629 359.085,150.816C 359.088,152.053 358.625,153.052 357.698,153.812C 356.77,154.572 355.363,154.962 353.475,154.984C 352.042,154.956 350.665,154.722 349.343,154.282C 348.021,153.842 346.939,153.362 346.098,152.842L 344.571,157.992C 345.669,158.678 346.974,159.225 348.485,159.634C 349.997,160.043 351.62,160.253 353.353,160.263C 357.145,160.232 360.11,159.328 362.248,157.553C 364.385,155.777 365.473,153.319 365.51,150.179C 365.506,147.884 364.826,145.961 363.469,144.412C 362.111,142.862 360.101,141.562 357.438,140.511C 355.417,139.707 353.971,138.942 353.101,138.217C 352.231,137.492 351.807,136.597 351.828,135.533C 351.833,134.434 352.25,133.52 353.078,132.79C 353.907,132.061 355.116,131.682 356.707,131.655C 358.076,131.679 359.286,131.876 360.337,132.248C 361.388,132.619 362.232,133.019 362.871,133.448L 364.363,128.432 Z "/>
		<path fill="#FFFFFF" fill-opacity="1" stroke-width="0.2" stroke-linejoin="round" d="M 378.439,131.888L 378.079,127.026L 371.968,127.026C 372.106,129.87 372.186,133.399 372.206,137.613L 372.206,172.755L 379.158,172.755L 379.158,155.902L 379.276,155.902C 380.094,157.214 381.255,158.263 382.759,159.051C 384.264,159.839 386.002,160.243 387.973,160.263C 391.552,160.296 394.713,158.925 397.458,156.151C 400.203,153.376 401.649,149.001 401.796,143.027C 401.719,137.829 400.49,133.775 398.112,130.866C 395.733,127.957 392.669,126.479 388.92,126.431C 384.316,126.487 380.863,128.306 378.559,131.888L 378.439,131.888 Z M 379.158,140.444C 379.218,137.96 379.97,135.899 381.414,134.26C 382.857,132.621 384.629,131.771 386.731,131.71C 389.37,131.796 391.369,132.925 392.728,135.098C 394.087,137.27 394.77,139.97 394.776,143.197C 394.767,146.672 394.062,149.489 392.662,151.648C 391.261,153.807 389.225,154.919 386.553,154.984C 384.77,155.003 383.116,154.337 381.591,152.987C 380.066,151.637 379.255,149.491 379.158,146.547L 379.158,140.444 Z "/>
		<rect x="408.492" y="112.155" fill="#FFFFFF" fill-opacity="1" stroke-width="0.2" stroke-linejoin="round" width="6.95233" height="47.5139"/>
		<path fill="#FFFFFF" fill-opacity="1" stroke-width="0.2" stroke-linejoin="round" d="M 447.005,139.302C 447.099,135.946 446.271,133.004 444.52,130.476C 442.769,127.947 439.53,126.618 434.801,126.487C 432.506,126.508 430.421,126.784 428.547,127.315C 426.673,127.846 425.136,128.502 423.936,129.284L 425.387,133.723C 426.466,133.09 427.718,132.588 429.144,132.22C 430.569,131.851 432.045,131.663 433.572,131.655C 436.842,131.794 438.832,132.631 439.543,134.165C 440.254,135.7 440.538,137.095 440.396,138.35C 434.528,138.349 429.94,139.362 426.63,141.39C 423.32,143.417 421.636,146.463 421.578,150.529C 421.596,153.145 422.452,155.39 424.146,157.265C 425.84,159.14 428.265,160.12 431.42,160.208C 433.552,160.181 435.421,159.748 437.027,158.908C 438.633,158.068 439.912,156.982 440.864,155.648L 441.035,155.648L 441.49,159.668L 447.481,159.668C 447.279,158.568 447.147,157.337 447.087,155.973C 447.026,154.61 446.999,153.213 447.005,151.781L 447.005,139.302 Z M 440.58,148.47C 440.528,150.372 439.833,151.932 438.498,153.15C 437.162,154.369 435.499,154.999 433.51,155.04C 432.146,155.048 430.986,154.63 430.029,153.786C 429.073,152.941 428.573,151.618 428.531,149.817C 428.683,146.988 429.992,145.123 432.458,144.222C 434.923,143.322 437.631,142.911 440.58,142.99L 440.58,148.47 Z "/>
		<path fill="#FFFFFF" fill-opacity="1" stroke-width="0.2" stroke-linejoin="round" d="M 482.662,139.884C 482.529,134.935 481.357,131.448 479.145,129.422C 476.932,127.396 474.478,126.418 471.781,126.487C 469.303,126.546 467.222,127.133 465.539,128.25C 463.856,129.367 462.622,130.66 461.838,132.129L 461.658,132.129L 461.299,127.026L 455.247,127.026C 455.309,128.4 455.364,129.827 455.411,131.306C 455.458,132.784 455.483,134.418 455.485,136.208L 455.485,159.668L 462.437,159.668L 462.437,139.999C 462.518,137.494 463.264,135.579 464.677,134.254C 466.089,132.929 467.683,132.261 469.46,132.249C 471.778,132.316 473.407,133.153 474.348,134.76C 475.29,136.368 475.743,138.35 475.71,140.706L 475.71,159.668L 482.662,159.668L 482.662,139.884 Z "/>
	</g>
	<path fill="#FFFFFF" fill-opacity="1" fill-rule="evenodd" stroke-width="0.2" stroke-linejoin="round" d="M 0,0L 532.157,0L 532.157,265.461L 0,265.461L 0,0 Z M 34.1404,33.0538L 498.956,33.0538L 498.956,232.924L 34.1404,232.924L 34.1404,33.0538 Z M 265.69,234.349C 273.942,234.349 280.631,241.038 280.631,249.29C 280.631,257.541 273.942,264.23 265.69,264.23C 257.439,264.23 250.75,257.541 250.75,249.29C 250.75,241.038 257.439,234.349 265.69,234.349 Z "/>
	<rect x="23.4964" y="24.841" fill="#FFFFFF" fill-opacity="1" stroke-width="0.2" stroke-linejoin="round" width="479.088" height="8.91153"/>
</svg>
